<?xml version="1.0" standalone="no"?>
<!DOCTYPE svg PUBLIC "-//W3C//DTD SVG 20010904//EN"
 "http://www.w3.org/TR/2001/REC-SVG-20010904/DTD/svg10.dtd">
<svg version="1.0" xmlns="http://www.w3.org/2000/svg"
 width="500.000000pt" height="500.000000pt" viewBox="0 0 500.000000 500.000000"
 preserveAspectRatio="xMidYMid meet">
<metadata>
Created by potrace 1.14, written by Peter Selinger 2001-2017
</metadata>
<g transform="translate(0.000000,500.000000) scale(0.100000,-0.100000)"
fill="#000000" stroke="none">
<path d="M2290 4924 c-411 -51 -818 -264 -1098 -577 -256 -286 -422 -682 -439
-1050 l-6 -118 94 3 94 3 7 115 c23 405 229 809 551 1079 204 171 435 281 706
338 108 22 151 26 301 26 150 0 193 -4 301 -26 216 -45 383 -114 564 -234 229
-152 422 -373 540 -618 84 -176 138 -380 153 -580 l7 -100 90 0 90 0 -3 90
c-6 230 -66 463 -174 680 -245 490 -683 828 -1223 946 -81 17 -140 22 -310 24
-115 2 -226 1 -245 -1z"/>
<path d="M3130 4403 c-47 -8 -90 -19 -96 -24 -7 -6 -33 -63 -58 -128 l-46
-118 -268 -7 c-572 -14 -642 -18 -651 -35 -11 -21 37 -432 52 -448 8 -8 130
-21 337 -38 l324 -26 71 -57 c77 -64 96 -104 54 -115 -13 -3 -198 -6 -412 -7
-214 0 -394 -3 -398 -6 -15 -9 -10 -52 7 -58 9 -3 27 -6 42 -6 20 0 23 -3 14
-12 -19 -19 -15 -82 6 -101 28 -25 87 -22 106 5 21 29 20 67 -1 90 -16 17 -6
18 290 18 l306 0 -15 -27 c-18 -37 -18 -45 7 -77 39 -50 129 -23 129 38 0 14
-11 37 -24 52 l-23 28 27 23 c60 50 42 127 -46 193 -30 22 -54 47 -54 55 0 14
263 691 272 700 3 3 45 12 94 21 97 17 126 33 108 62 -14 22 -50 24 -154 5z
m-520 -393 l0 -60 -60 0 -60 0 0 60 0 60 60 0 60 0 0 -60z m150 0 l0 -60 -65
0 -65 0 0 44 c0 71 4 76 71 76 l59 0 0 -60z m119 8 c-27 -70 -26 -68 -65 -68
l-34 0 0 60 0 60 60 0 60 0 -21 -52z m-719 -13 l0 -55 -44 0 c-42 0 -44 1 -50
38 -11 71 -11 72 44 72 l50 0 0 -55z m150 0 l0 -55 -60 0 -60 0 0 55 0 55 60
0 60 0 0 -55z m150 0 l0 -55 -60 0 -60 0 0 55 0 55 60 0 60 0 0 -55z m-300
-145 l0 -60 -34 0 c-37 0 -46 15 -46 83 0 37 0 37 40 37 l40 0 0 -60z m150 0
l0 -60 -60 0 -60 0 0 60 0 60 60 0 60 0 0 -60z m150 0 l0 -60 -60 0 -60 0 0
60 0 60 60 0 60 0 0 -60z m150 0 l0 -60 -60 0 -60 0 0 60 0 60 60 0 60 0 0
-60z m150 0 l0 -61 -62 3 -63 3 -3 44 c-5 66 -1 71 68 71 l60 0 0 -60z m80 57
c0 -16 -48 -116 -53 -111 -9 9 -9 99 0 107 6 7 53 10 53 4z m-680 -177 c0 -38
-2 -40 -30 -40 -22 0 -30 5 -30 18 0 9 -3 27 -6 40 -6 20 -3 22 30 22 35 0 36
-1 36 -40z m150 -11 c0 -48 -1 -51 -22 -45 -13 3 -40 6 -60 6 l-38 0 0 45 0
45 60 0 60 0 0 -51z m150 -5 c0 -54 -1 -56 -22 -50 -13 3 -40 6 -60 6 l-38 0
0 50 0 50 60 0 60 0 0 -56z m150 -4 c0 -66 3 -64 -74 -54 l-46 7 0 53 0 54 60
0 60 0 0 -60z m150 26 c0 -18 -5 -47 -11 -65 -11 -32 -34 -39 -86 -25 -21 6
-23 13 -23 65 l0 59 60 0 60 0 0 -34z m-570 -451 c7 -9 10 -25 6 -40 -6 -22
-11 -26 -39 -23 -25 2 -33 8 -35 26 -7 44 41 70 68 37z m704 -7 c15 -24 -3
-52 -37 -56 -35 -4 -52 26 -31 57 18 26 51 25 68 -1z"/>
<path d="M2143 3274 c-8 -21 13 -42 28 -27 13 13 5 43 -11 43 -6 0 -13 -7 -17
-16z"/>
<path d="M2837 3276 c-8 -20 20 -43 35 -28 14 14 3 42 -16 42 -7 0 -16 -6 -19
-14z"/>
<path d="M3630 2828 c-24 -84 -45 -161 -48 -170 -4 -16 4 -18 69 -18 l74 0 61
163 c34 89 60 165 57 170 -2 4 -42 7 -87 7 l-84 0 -42 -152z"/>
<path d="M4207 2930 c-134 -34 -207 -118 -207 -239 0 -138 63 -193 296 -261
105 -30 153 -86 126 -145 -43 -93 -209 -78 -257 23 l-20 42 -92 0 c-51 0 -93
-4 -93 -8 0 -38 37 -120 71 -157 120 -130 417 -133 533 -5 45 50 60 98 53 177
-10 126 -75 179 -296 243 -113 33 -152 83 -120 154 15 32 60 50 110 43 48 -6
84 -37 101 -84 l12 -33 93 0 93 0 -6 28 c-22 98 -98 188 -182 212 -53 16 -171
21 -215 10z"/>
<path d="M649 2893 c-6 -15 -69 -188 -139 -383 -71 -195 -133 -368 -139 -383
l-11 -28 102 3 103 3 35 112 35 113 135 0 136 0 37 -115 38 -115 100 0 c96 0
100 1 94 20 -3 11 -69 194 -145 407 l-138 388 -116 3 -116 3 -11 -28z m184
-330 l25 -83 -84 0 c-57 0 -84 4 -84 12 0 10 62 210 77 248 3 9 12 -6 23 -40
9 -30 29 -92 43 -137z"/>
<path d="M1270 2511 l0 -411 95 0 95 0 0 160 0 160 84 0 c125 0 140 -17 170
-185 8 -44 19 -92 25 -107 10 -28 11 -28 111 -28 l100 0 -18 38 c-23 44 -28
66 -42 161 -12 88 -39 143 -85 174 l-35 24 40 18 c83 37 129 123 115 214 -9
59 -26 91 -69 129 -57 50 -90 55 -348 59 l-238 4 0 -410z m375 259 c71 -16
105 -85 74 -153 -18 -40 -48 -51 -156 -55 l-103 -4 0 111 0 111 73 0 c39 0 90
-5 112 -10z"/>
<path d="M1990 2915 c0 -3 63 -116 140 -250 l140 -245 0 -160 0 -160 95 0 95
0 0 159 0 159 136 237 c74 130 138 243 141 251 4 11 -13 14 -94 14 l-98 0 -86
-172 -86 -171 -89 171 -89 172 -102 0 c-57 0 -103 -2 -103 -5z"/>
<path d="M3035 2908 c-2 -7 -68 -188 -145 -403 -77 -214 -140 -393 -140 -397
0 -4 44 -8 98 -8 l97 0 35 113 36 112 136 3 137 3 37 -116 37 -115 100 0 c98
0 99 0 93 23 -3 12 -68 195 -144 407 l-137 385 -118 3 c-88 2 -118 -1 -122
-10z m158 -274 c19 -60 37 -119 41 -131 7 -23 6 -23 -78 -23 -47 0 -86 3 -86
6 0 15 82 265 86 262 2 -2 19 -54 37 -114z"/>
<path d="M755 1810 c-4 -6 -4 -59 0 -118 48 -736 570 -1372 1289 -1567 168
-46 290 -58 516 -52 173 4 222 9 312 31 333 79 599 222 837 451 250 240 420
535 497 863 21 92 44 264 44 340 l0 63 -92 -3 -93 -3 -7 -107 c-48 -711 -587
-1310 -1293 -1434 -133 -23 -393 -23 -530 0 -118 20 -307 81 -420 136 -361
174 -656 506 -789 887 -47 135 -76 278 -84 410 l-7 108 -87 3 c-55 2 -89 -1
-93 -8z"/>
<path d="M3546 1447 c-32 -77 -36 -71 73 -115 l99 -40 21 50 c25 59 26 68 8
68 -7 0 -19 -16 -26 -35 -13 -38 -27 -43 -56 -21 -17 12 -18 17 -7 41 12 26 9
45 -8 45 -5 0 -14 -15 -20 -34 -11 -33 -13 -34 -41 -24 -34 12 -33 9 -15 53
14 32 12 45 -6 45 -4 0 -14 -15 -22 -33z"/>
<path d="M1312 1444 c-58 -40 -65 -119 -14 -166 33 -31 62 -41 96 -32 31 8 32
12 5 75 -31 70 -51 48 -23 -25 5 -12 0 -16 -18 -16 -35 0 -58 30 -58 73 0 31
5 41 33 57 43 26 63 25 94 -6 21 -21 24 -32 19 -62 -6 -43 5 -71 21 -50 30 39
18 115 -24 148 -31 24 -99 27 -131 4z"/>
<path d="M3460 1258 c-23 -24 -54 -78 -48 -83 27 -22 178 -112 182 -108 14 14
4 33 -24 50 -47 27 -38 43 24 43 35 0 58 5 66 15 11 13 8 15 -16 15 -46 0 -74
11 -74 29 0 56 -71 81 -110 39z m61 -18 c22 -12 24 -37 5 -62 -16 -22 -25 -22
-54 0 l-23 18 21 27 c24 31 24 31 51 17z"/>
<path d="M1465 1189 c-44 -33 -81 -64 -83 -68 -7 -21 22 -22 50 -1 43 31 53
14 28 -45 -18 -42 -19 -50 -7 -63 13 -12 17 -8 32 31 16 44 18 45 51 40 73
-12 96 53 43 125 -17 23 -31 42 -32 41 -1 0 -38 -27 -82 -60z m105 -22 c13
-24 13 -28 -1 -43 -20 -19 -49 -12 -67 16 -11 18 -10 24 10 40 28 24 39 21 58
-13z"/>
<path d="M3313 1070 c-39 -24 -53 -48 -53 -95 0 -55 53 -105 110 -105 34 0 48
6 76 34 52 52 44 128 -18 166 -41 25 -74 25 -115 0z m94 -29 c83 -51 19 -178
-66 -130 -41 23 -57 60 -42 96 11 28 40 51 66 52 6 1 24 -8 42 -18z"/>
<path d="M1630 1018 c-19 -13 -40 -39 -48 -60 -13 -33 -12 -41 4 -75 12 -25
32 -45 57 -57 34 -16 42 -17 75 -4 81 31 103 121 44 180 -40 40 -88 46 -132
16z m112 -35 c45 -41 3 -133 -62 -133 -63 0 -91 70 -49 124 24 31 81 36 111 9z"/>
<path d="M3107 906 c-60 -42 -60 -42 -52 -55 4 -7 14 -5 31 5 13 9 26 15 28
13 2 -2 25 -37 50 -76 26 -40 51 -73 56 -73 24 0 17 25 -25 90 -25 38 -45 75
-45 80 0 5 9 14 20 20 21 11 19 30 -3 29 -7 0 -34 -15 -60 -33z"/>
<path d="M1857 850 c-30 -24 -51 -80 -42 -112 11 -36 55 -77 89 -84 39 -7 99
13 76 26 -8 4 -32 8 -52 7 -72 -2 -103 68 -57 127 31 39 86 34 114 -11 27 -43
45 -49 45 -17 0 15 -12 38 -29 55 -37 36 -104 41 -144 9z"/>
<path d="M2906 799 c-57 -45 -20 -115 56 -103 24 4 43 2 53 -6 21 -17 19 -27
-10 -46 -19 -12 -28 -14 -39 -5 -14 12 -46 5 -46 -10 0 -16 47 -32 75 -25 57
14 84 76 47 109 -10 9 -40 17 -72 19 -42 2 -56 7 -58 20 -4 23 32 42 56 29 10
-5 24 -6 32 -1 11 7 11 11 1 24 -19 22 -63 20 -95 -5z"/>
<path d="M2121 766 c-24 -61 -52 -179 -44 -185 19 -17 96 -32 106 -22 10 10 3
14 -61 36 -8 3 -10 14 -6 32 9 37 8 37 45 24 18 -6 34 -9 37 -6 10 10 -9 35
-27 35 -26 0 -34 15 -27 46 5 18 12 24 24 20 57 -17 72 -18 72 -4 0 9 -21 21
-56 30 -54 15 -56 15 -63 -6z"/>
<path d="M2307 699 c-19 -136 -20 -179 -4 -179 18 0 27 21 27 61 0 45 24 35
50 -21 16 -33 30 -50 42 -50 17 0 17 2 2 38 -9 20 -18 42 -20 47 -2 6 6 15 18
20 17 7 24 20 26 46 4 46 -18 66 -84 74 l-51 7 -6 -43z m90 1 c18 0 26 -39 13
-55 -7 -8 -25 -15 -41 -15 -27 0 -29 2 -29 41 0 38 2 41 23 35 12 -3 27 -6 34
-6z"/>
<path d="M2641 698 c-10 -24 -20 -49 -23 -57 -2 -9 -16 5 -36 37 -30 50 -45
61 -56 44 -2 -4 13 -35 34 -68 21 -34 40 -76 42 -95 2 -23 9 -35 21 -37 14 -3
17 4 17 42 0 26 11 73 25 108 30 73 29 68 10 68 -9 0 -24 -19 -34 -42z"/>
</g>
</svg>
